<svg width="20" height="21" viewBox="0 0 20 21" fill="none" xmlns="http://www.w3.org/2000/svg">
<g clip-path="url(#clip0_59_12315)">
<path d="M9.07672 3.02169C9.41831 2.20039 10.5818 2.20039 10.9234 3.02169L12.4105 6.59722C12.5545 6.94346 12.8801 7.18003 13.2539 7.20999L17.114 7.51945C18.0007 7.59054 18.3602 8.69704 17.6846 9.27571L14.7437 11.795C14.4589 12.0389 14.3345 12.4217 14.4215 12.7865L15.32 16.5533C15.5264 17.4185 14.5852 18.1023 13.8261 17.6387L10.5213 15.6201C10.2013 15.4247 9.7988 15.4247 9.47878 15.6201L6.17401 17.6387C5.41491 18.1023 4.47366 17.4185 4.68005 16.5533L5.57856 12.7865C5.66557 12.4217 5.5412 12.0389 5.25641 11.795L2.31543 9.27571C1.63989 8.69704 1.99942 7.59054 2.88607 7.51945L6.74616 7.20999C7.11995 7.18003 7.44556 6.94346 7.58957 6.59722L9.07672 3.02169Z" fill="#2F2B43"/>
</g>
<defs>
<clipPath id="clip0_59_12315">
<rect width="20" height="20" fill="white" transform="translate(0 0.301758)"/>
</clipPath>
</defs>
</svg>
