<svg width="43" height="33" viewBox="0 0 43 33" fill="none" xmlns="http://www.w3.org/2000/svg">
<path d="M22.4977 0.484375H7.16534V26.8808C9.02525 25.927 11.0282 25.2355 13.1504 24.854V5.56336H21.2458C24.918 5.56336 28.7332 6.31448 28.7332 11.4888C28.7332 13.8376 27.9701 15.2683 26.7898 16.1386C28.5305 16.544 30.2115 17.1282 31.7972 17.8912C33.6214 16.3532 34.6706 14.0045 34.6706 10.7973C34.6586 4.25189 29.8896 0.484375 22.4977 0.484375Z" fill="#000034"/>
<path d="M42.3368 32.4844H34.1341C32.3458 30.3264 30.1639 28.5142 27.6841 27.155C24.5604 25.4501 20.9717 24.4844 17.1684 24.4844C15.7973 24.4844 14.4501 24.6036 13.1505 24.854C11.0402 25.2355 9.02534 25.927 7.16542 26.8808C4.47094 28.2519 2.11028 30.1714 0.202683 32.4844H0C1.22802 28.1327 3.76751 24.3175 7.16542 21.5157C8.94188 20.0492 10.9568 18.845 13.1505 17.9985C13.687 17.7839 14.2355 17.6051 14.7958 17.4263C16.8107 16.8182 18.9568 16.4844 21.1744 16.4844C22.6051 16.4844 24 16.6274 25.3592 16.8897C27.2429 17.2474 29.0313 17.8555 30.7124 18.6543C36.3279 21.3607 40.62 26.3801 42.3487 32.4844H42.3368Z" fill="#45DEFE"/>
</svg>
