<svg width="115" height="32" viewBox="0 0 115 32" fill="none" xmlns="http://www.w3.org/2000/svg">
<g clip-path="url(#clip0_44_29976)">
<path d="M41.77 10.3701H47.25C49.89 10.3701 51.6 11.7201 51.6 14.0501C51.6 15.8501 50.68 16.8901 49.21 17.2501V17.2901C52.17 17.8501 51.1 22.8801 51.78 23.0901V23.2201H49.53C48.94 22.6801 50.14 18.2601 47.05 18.2601H43.91V23.2201H41.77V10.3701ZM43.91 16.4201H46.8C48.11 16.4201 49.48 16.1701 49.48 14.3001C49.48 12.4301 48.12 12.1801 46.8 12.1801H43.91V16.4201Z" fill="#000034"/>
<path d="M57.05 15.27C55.54 15.27 54.98 15.74 54.89 16.92H53.06C53.15 15.16 54.28 13.78 57.05 13.78C59.08 13.78 60.59 14.55 60.59 16.99V21.35C60.59 22 60.73 22.34 61.47 22.27V23.17C61.04 23.33 60.73 23.37 60.37 23.37C59.36 23.37 58.9 23.01 58.72 22.11H58.68C58.11 22.92 57.06 23.48 55.64 23.48C53.77 23.48 52.62 22.4 52.62 20.86C52.62 18.85 54.11 18.22 56.41 17.77C57.83 17.5 58.69 17.32 58.69 16.44C58.69 15.78 58.29 15.27 57.04 15.27H57.05ZM58.7 19.72V18.34C58.39 18.56 57.66 18.77 56.78 18.95C55.22 19.29 54.53 19.74 54.53 20.67C54.53 21.51 55.03 21.98 56.06 21.98C57.62 21.98 58.7 21.21 58.7 19.72Z" fill="#000034"/>
<path d="M62.57 11.4802C62.57 10.8302 63.11 10.4902 63.63 10.4902C64.19 10.4902 64.71 10.8302 64.71 11.4802C64.71 12.1302 64.19 12.4902 63.63 12.4902C63.11 12.4902 62.57 12.1302 62.57 11.4802ZM64.58 14.0302V23.2102H62.69V14.0302H64.58Z" fill="#000034"/>
<path d="M74.5 16.87V23.21H72.6V17.41C72.6 16.17 72.08 15.38 70.79 15.38C69.34 15.38 68.4 16.26 68.4 17.62V23.21H66.51V14.03H68.4V15.22H68.44C68.92 14.5 69.88 13.78 71.46 13.78C73.17 13.78 74.51 14.77 74.51 16.87H74.5Z" fill="#000034"/>
<path d="M85.04 18.6301C85.04 21.6501 83.3 23.4801 80.94 23.4801C79.52 23.4801 78.62 22.7801 78.14 22.1501H78.1V23.2101H76.21V10.3701H78.1V15.1501H78.14C78.63 14.4501 79.52 13.7801 80.94 13.7801C83.29 13.7801 85.04 15.6101 85.04 18.6301ZM83.15 18.6301C83.15 16.8301 82.27 15.3301 80.62 15.3301C79.08 15.3301 78.12 16.5901 78.12 18.6301C78.12 20.6701 79.07 21.9401 80.62 21.9401C82.27 21.9401 83.15 20.4301 83.15 18.6301Z" fill="#000034"/>
<path d="M90.48 23.48C87.61 23.48 85.86 21.49 85.86 18.63C85.86 15.77 87.6 13.78 90.48 13.78C93.36 13.78 95.1 15.77 95.1 18.63C95.1 21.49 93.36 23.48 90.48 23.48ZM90.48 21.94C92.28 21.94 93.21 20.52 93.21 18.63C93.21 16.74 92.28 15.33 90.48 15.33C88.68 15.33 87.75 16.73 87.75 18.63C87.75 20.53 88.68 21.94 90.48 21.94Z" fill="#000034"/>
<path d="M97.31 14.03L99.18 21H99.22L101.09 14.03H102.94L104.83 21H104.87L106.72 14.03H108.71L105.91 23.21H104.01L102.03 16.21H101.99L100.03 23.21H98.14L95.32 14.03H97.31Z" fill="#000034"/>
<path d="M19.87 3H7.01001V25.14C8.57001 24.34 10.25 23.76 12.03 23.44V7.26H18.82C21.9 7.26 25.1 7.89 25.1 12.23C25.1 14.2 24.46 15.4 23.47 16.13C24.93 16.47 26.34 16.96 27.67 17.6C29.2 16.31 30.08 14.34 30.08 11.65C30.07 6.16 26.07 3 19.87 3Z" fill="#000034"/>
<path d="M36.51 29.8399H29.63C28.13 28.0299 26.3 26.5099 24.22 25.3699C21.6 23.9399 18.59 23.1299 15.4 23.1299C14.25 23.1299 13.12 23.2299 12.03 23.4399C10.26 23.7599 8.57 24.3399 7.01 25.1399C4.75 26.2899 2.77 27.8999 1.17 29.8399H1C2.03 26.1899 4.16 22.9899 7.01 20.6399C8.5 19.4099 10.19 18.3999 12.03 17.6899C12.48 17.5099 12.94 17.3599 13.41 17.2099C15.1 16.6999 16.9 16.4199 18.76 16.4199C19.96 16.4199 21.13 16.5399 22.27 16.7599C23.85 17.0599 25.35 17.5699 26.76 18.2399C31.47 20.5099 35.07 24.7199 36.52 29.8399H36.51Z" fill="#45DEFE"/>
</g>
<defs>
<clipPath id="clip0_44_29976">
<rect width="107.7" height="26.84" fill="white" transform="translate(1 3)"/>
</clipPath>
</defs>
</svg>
