<svg width="64" height="65" viewBox="0 0 64 65" fill="none" xmlns="http://www.w3.org/2000/svg">
<circle cx="32" cy="32.3341" r="31.5" fill="white" stroke="#DEF1F7"/>
<circle cx="32" cy="32.3341" r="28" fill="#45DEFE"/>
<rect x="40" y="40.3341" width="24" height="24" rx="12" fill="#000034"/>
<path d="M51.5 49.7208V51.6275L50.8267 51.3942C50.4867 51.2742 50.28 51.1608 50.28 50.5808C50.28 50.1075 50.6333 49.7208 51.0667 49.7208H51.5Z" fill="#45DEFE"/>
<path d="M53.72 54.0874C53.72 54.5608 53.3667 54.9474 52.9333 54.9474H52.5V53.0408L53.1733 53.2741C53.5133 53.3941 53.72 53.5074 53.72 54.0874Z" fill="#45DEFE"/>
<path d="M54.7933 45.6675H49.2067C46.78 45.6675 45.3333 47.1141 45.3333 49.5408V55.1275C45.3333 57.5541 46.78 59.0008 49.2067 59.0008H54.7933C57.22 59.0008 58.6667 57.5541 58.6667 55.1275V49.5408C58.6667 47.1141 57.22 45.6675 54.7933 45.6675ZM53.5067 52.3341C54.0267 52.5141 54.72 52.8941 54.72 54.0875C54.72 55.1141 53.92 55.9475 52.9333 55.9475H52.5V56.3341C52.5 56.6075 52.2733 56.8341 52 56.8341C51.7267 56.8341 51.5 56.6075 51.5 56.3341V55.9475H51.26C50.1667 55.9475 49.28 55.0208 49.28 53.8875C49.28 53.6141 49.5 53.3875 49.78 53.3875C50.0533 53.3875 50.28 53.6141 50.28 53.8875C50.28 54.4741 50.72 54.9475 51.26 54.9475H51.5V52.6875L50.4933 52.3341C49.9733 52.1541 49.28 51.7741 49.28 50.5808C49.28 49.5541 50.08 48.7208 51.0667 48.7208H51.5V48.3341C51.5 48.0608 51.7267 47.8341 52 47.8341C52.2733 47.8341 52.5 48.0608 52.5 48.3341V48.7208H52.74C53.8333 48.7208 54.72 49.6475 54.72 50.7808C54.72 51.0541 54.5 51.2808 54.22 51.2808C53.9467 51.2808 53.72 51.0541 53.72 50.7808C53.72 50.1941 53.28 49.7208 52.74 49.7208H52.5V51.9808L53.5067 52.3341Z" fill="#45DEFE"/>
<path d="M32 44.3341L45.3333 35.0008H40.0133L40 20.3341H24V35.0008H18.6667L32 44.3341Z" fill="white" stroke="white" stroke-width="2" stroke-linecap="round" stroke-linejoin="round"/>
<g filter="url(#filter0_d_44_29907)">
<path d="M28 35.0007L36 27.0007" stroke="#000034" stroke-width="2" stroke-linecap="round" stroke-linejoin="round"/>
</g>
<g filter="url(#filter1_d_44_29907)">
<path d="M28.6667 28.3341C29.0349 28.3341 29.3333 28.0356 29.3333 27.6674C29.3333 27.2992 29.0349 27.0007 28.6667 27.0007C28.2985 27.0007 28 27.2992 28 27.6674C28 28.0356 28.2985 28.3341 28.6667 28.3341Z" fill="#000034"/>
<path d="M28.6667 28.3341C29.0349 28.3341 29.3333 28.0356 29.3333 27.6674C29.3333 27.2992 29.0349 27.0007 28.6667 27.0007C28.2985 27.0007 28 27.2992 28 27.6674C28 28.0356 28.2985 28.3341 28.6667 28.3341Z" stroke="#000034" stroke-width="2" stroke-linecap="round" stroke-linejoin="round"/>
</g>
<path d="M35.3333 35.0008C35.7015 35.0008 36 34.7023 36 34.3341C36 33.966 35.7015 33.6675 35.3333 33.6675C34.9651 33.6675 34.6667 33.966 34.6667 34.3341C34.6667 34.7023 34.9651 35.0008 35.3333 35.0008Z" fill="#000034" stroke="#000034" stroke-width="2" stroke-linecap="round" stroke-linejoin="round"/>
<defs>
<filter id="filter0_d_44_29907" x="25" y="24.0007" width="18" height="18" filterUnits="userSpaceOnUse" color-interpolation-filters="sRGB">
<feFlood flood-opacity="0" result="BackgroundImageFix"/>
<feColorMatrix in="SourceAlpha" type="matrix" values="0 0 0 0 0 0 0 0 0 0 0 0 0 0 0 0 0 0 127 0" result="hardAlpha"/>
<feOffset dx="2" dy="2"/>
<feGaussianBlur stdDeviation="2"/>
<feComposite in2="hardAlpha" operator="out"/>
<feColorMatrix type="matrix" values="0 0 0 0 0.439216 0 0 0 0 0.396078 0 0 0 0 0.941176 0 0 0 0.1 0"/>
<feBlend mode="normal" in2="BackgroundImageFix" result="effect1_dropShadow_44_29907"/>
<feBlend mode="normal" in="SourceGraphic" in2="effect1_dropShadow_44_29907" result="shape"/>
</filter>
<filter id="filter1_d_44_29907" x="25" y="24.0007" width="11.3333" height="11.3334" filterUnits="userSpaceOnUse" color-interpolation-filters="sRGB">
<feFlood flood-opacity="0" result="BackgroundImageFix"/>
<feColorMatrix in="SourceAlpha" type="matrix" values="0 0 0 0 0 0 0 0 0 0 0 0 0 0 0 0 0 0 127 0" result="hardAlpha"/>
<feOffset dx="2" dy="2"/>
<feGaussianBlur stdDeviation="2"/>
<feComposite in2="hardAlpha" operator="out"/>
<feColorMatrix type="matrix" values="0 0 0 0 0.439216 0 0 0 0 0.396078 0 0 0 0 0.941176 0 0 0 0.1 0"/>
<feBlend mode="normal" in2="BackgroundImageFix" result="effect1_dropShadow_44_29907"/>
<feBlend mode="normal" in="SourceGraphic" in2="effect1_dropShadow_44_29907" result="shape"/>
</filter>
</defs>
</svg>
