<svg width="65" height="65" viewBox="0 0 65 65" fill="none" xmlns="http://www.w3.org/2000/svg">
<circle cx="32.3333" cy="32.3341" r="31.5" fill="white" stroke="#DEF1F7"/>
<circle cx="32.3333" cy="32.3341" r="28" fill="#45DEFE"/>
<path d="M40.3333 51.3341C40.3333 50.0751 40.9261 48.8895 41.9333 48.1341L49.9333 42.1341C51.3556 41.0674 53.3111 41.0674 54.7333 42.1341L62.7333 48.1341C63.7406 48.8895 64.3333 50.0751 64.3333 51.3341V64.3341H40.3333V51.3341Z" fill="#000034"/>
<g clip-path="url(#clip0_44_29919)">
<path d="M54.4998 50.5048H55.9998C56.1325 50.5048 56.2596 50.5574 56.3534 50.6512C56.4472 50.745 56.4998 50.8722 56.4998 51.0048V60.0048C56.4998 60.1374 56.4472 60.2645 56.3534 60.3583C56.2596 60.4521 56.1325 60.5048 55.9998 60.5048H47.9998C47.8672 60.5048 47.7401 60.4521 47.6463 60.3583C47.5525 60.2645 47.4998 60.1374 47.4998 60.0048V51.0048C47.4998 50.8722 47.5525 50.745 47.6463 50.6512C47.7401 50.5574 47.8672 50.5048 47.9998 50.5048H49.4998V49.5048H50.4998V50.5048H53.4998V49.5048H54.4998V50.5048ZM49.4998 53.5048V54.5048H54.4998V53.5048H49.4998ZM49.4998 55.5048V56.5048H54.4998V55.5048H49.4998Z" fill="#45DEFE"/>
</g>
<g clip-path="url(#clip1_44_29919)">
<g filter="url(#filter0_d_44_29919)">
<path d="M21.6667 27.0008V24.3341C21.6667 23.6269 21.9477 22.9486 22.4478 22.4485C22.9478 21.9484 23.6261 21.6675 24.3334 21.6675H27" stroke="white" stroke-width="2" stroke-linecap="round" stroke-linejoin="round" shape-rendering="crispEdges"/>
</g>
<g filter="url(#filter1_d_44_29919)">
<path d="M21.6667 37.6675V40.3341C21.6667 41.0414 21.9477 41.7197 22.4478 42.2198C22.9478 42.7199 23.6261 43.0008 24.3334 43.0008H27" stroke="white" stroke-width="2" stroke-linecap="round" stroke-linejoin="round" shape-rendering="crispEdges"/>
</g>
<path d="M37.6667 21.6675H40.3334C41.0406 21.6675 41.7189 21.9484 42.219 22.4485C42.7191 22.9486 43 23.6269 43 24.3341V27.0008" stroke="white" stroke-width="2" stroke-linecap="round" stroke-linejoin="round"/>
<path d="M37.6667 43.0008H40.3334C41.0406 43.0008 41.7189 42.7199 42.219 42.2198C42.7191 41.7197 43 41.0414 43 40.3341V37.6675" stroke="white" stroke-width="2" stroke-linecap="round" stroke-linejoin="round"/>
<path d="M32.3333 40.3341L27.6666 33.6674C27.2174 32.8554 26.9878 31.9403 27.0005 31.0125C27.0132 30.0846 27.2677 29.1761 27.739 28.3767C28.2103 27.5774 28.882 26.9148 29.6877 26.4545C30.4935 25.9942 31.4054 25.7521 32.3333 25.7521C33.2613 25.7521 34.1732 25.9942 34.9789 26.4545C35.7846 26.9148 36.4563 27.5774 36.9276 28.3767C37.3989 29.1761 37.6535 30.0846 37.6661 31.0125C37.6788 31.9403 37.4492 32.8554 37 33.6674L32.3333 40.3341Z" fill="white" stroke="white" stroke-width="2" stroke-linecap="round" stroke-linejoin="round"/>
<path d="M32.3333 31.0007V31.0141" stroke="#000034" stroke-width="6" stroke-linecap="round" stroke-linejoin="round"/>
</g>
<defs>
<filter id="filter0_d_44_29919" x="18.6667" y="18.6675" width="15.3333" height="15.3334" filterUnits="userSpaceOnUse" color-interpolation-filters="sRGB">
<feFlood flood-opacity="0" result="BackgroundImageFix"/>
<feColorMatrix in="SourceAlpha" type="matrix" values="0 0 0 0 0 0 0 0 0 0 0 0 0 0 0 0 0 0 127 0" result="hardAlpha"/>
<feOffset dx="2" dy="2"/>
<feGaussianBlur stdDeviation="2"/>
<feComposite in2="hardAlpha" operator="out"/>
<feColorMatrix type="matrix" values="0 0 0 0 0.439216 0 0 0 0 0.396078 0 0 0 0 0.941176 0 0 0 0.1 0"/>
<feBlend mode="normal" in2="BackgroundImageFix" result="effect1_dropShadow_44_29919"/>
<feBlend mode="normal" in="SourceGraphic" in2="effect1_dropShadow_44_29919" result="shape"/>
</filter>
<filter id="filter1_d_44_29919" x="18.6667" y="34.6675" width="15.3333" height="15.3334" filterUnits="userSpaceOnUse" color-interpolation-filters="sRGB">
<feFlood flood-opacity="0" result="BackgroundImageFix"/>
<feColorMatrix in="SourceAlpha" type="matrix" values="0 0 0 0 0 0 0 0 0 0 0 0 0 0 0 0 0 0 127 0" result="hardAlpha"/>
<feOffset dx="2" dy="2"/>
<feGaussianBlur stdDeviation="2"/>
<feComposite in2="hardAlpha" operator="out"/>
<feColorMatrix type="matrix" values="0 0 0 0 0.439216 0 0 0 0 0.396078 0 0 0 0 0.941176 0 0 0 0.1 0"/>
<feBlend mode="normal" in2="BackgroundImageFix" result="effect1_dropShadow_44_29919"/>
<feBlend mode="normal" in="SourceGraphic" in2="effect1_dropShadow_44_29919" result="shape"/>
</filter>
<clipPath id="clip0_44_29919">
<rect width="12" height="12" fill="white" transform="translate(45.9998 49.5048)"/>
</clipPath>
<clipPath id="clip1_44_29919">
<rect width="32" height="32" fill="white" transform="translate(16.3333 16.3341)"/>
</clipPath>
</defs>
</svg>
