<svg width="65" height="65" viewBox="0 0 65 65" fill="none" xmlns="http://www.w3.org/2000/svg">
<circle cx="32.6667" cy="32.3341" r="31.5" fill="white" stroke="#DEF1F7"/>
<circle cx="32.6667" cy="32.3341" r="28" fill="#45DEFE"/>
<g clip-path="url(#clip0_44_29931)">
<path fill-rule="evenodd" clip-rule="evenodd" d="M19.3333 32.3341H22.2962V42.7044C22.2962 43.4903 22.6084 44.2439 23.1641 44.7996C23.7197 45.3552 24.4734 45.6674 25.2592 45.6674H40.074C40.8598 45.6674 41.6135 45.3552 42.1691 44.7996C42.7248 44.2439 43.037 43.4903 43.037 42.7044V32.3341H43.037H46L32.6667 19.0007L19.3333 32.3341Z" fill="white"/>
<path d="M22.2962 32.3341H23.2962C23.2962 31.7818 22.8485 31.3341 22.2962 31.3341V32.3341ZM19.3333 32.3341L18.6262 31.627C18.3402 31.913 18.2547 32.3431 18.4095 32.7167C18.5642 33.0904 18.9289 33.3341 19.3333 33.3341V32.3341ZM23.1641 44.7996L23.8712 44.0925L23.1641 44.7996ZM42.1691 44.7996L41.462 44.0925L41.462 44.0925L42.1691 44.7996ZM43.037 32.3341V31.3341C42.4847 31.3341 42.037 31.7818 42.037 32.3341H43.037ZM46 32.3341V33.3341C46.4045 33.3341 46.7691 33.0904 46.9239 32.7167C47.0787 32.3431 46.9931 31.913 46.7071 31.627L46 32.3341ZM32.6667 19.0007L33.3738 18.2936C32.9833 17.9031 32.3501 17.9031 31.9596 18.2936L32.6667 19.0007ZM22.2962 31.3341H19.3333V33.3341H22.2962V31.3341ZM21.2962 32.3341V42.7044H23.2962V32.3341H21.2962ZM21.2962 42.7044C21.2962 43.7555 21.7138 44.7635 22.457 45.5067L23.8712 44.0925C23.503 43.7243 23.2962 43.225 23.2962 42.7044H21.2962ZM22.457 45.5067C23.2002 46.2499 24.2082 46.6674 25.2592 46.6674V44.6674C24.7386 44.6674 24.2393 44.4606 23.8712 44.0925L22.457 45.5067ZM25.2592 46.6674H40.074V44.6674H25.2592V46.6674ZM40.074 46.6674C41.1251 46.6674 42.1331 46.2499 42.8763 45.5067L41.462 44.0925C41.0939 44.4606 40.5946 44.6674 40.074 44.6674V46.6674ZM42.8762 45.5067C43.6194 44.7635 44.037 43.7555 44.037 42.7044H42.037C42.037 43.225 41.8302 43.7243 41.462 44.0925L42.8762 45.5067ZM44.037 42.7044V32.3341H42.037V42.7044H44.037ZM43.037 31.3341H43.037V33.3341H43.037V31.3341ZM46 31.3341H43.037V33.3341H46V31.3341ZM31.9596 19.7078L45.2929 33.0412L46.7071 31.627L33.3738 18.2936L31.9596 19.7078ZM20.0405 33.0412L33.3738 19.7078L31.9596 18.2936L18.6262 31.627L20.0405 33.0412Z" fill="white"/>
<path d="M28.6667 34.3343L31.3334 37.0009L36.6667 31.6676" stroke="#000034" stroke-width="2" stroke-linecap="round" stroke-linejoin="round"/>
</g>
<path d="M40.6667 40.3341H64.6667V52.3341C64.6667 58.9615 59.2941 64.3341 52.6667 64.3341C46.0393 64.3341 40.6667 58.9615 40.6667 52.3341V40.3341Z" fill="#000034"/>
<path d="M57.0267 47.1141L53.36 45.7407C52.98 45.6007 52.36 45.6007 51.98 45.7407L48.3134 47.1141C47.6067 47.3807 47.0334 48.2074 47.0334 48.9607V54.3607C47.0334 54.9007 47.3867 55.6141 47.82 55.9341L51.4867 58.6741C52.1334 59.1607 53.1934 59.1607 53.84 58.6741L57.5067 55.9341C57.94 55.6074 58.2934 54.9007 58.2934 54.3607V48.9607C58.3 48.2074 57.7267 47.3807 57.0267 47.1141ZM53.1667 52.9141V54.6674C53.1667 54.9407 52.94 55.1674 52.6667 55.1674C52.3934 55.1674 52.1667 54.9407 52.1667 54.6674V52.9141C51.4934 52.7007 51 52.0741 51 51.3341C51 50.4141 51.7467 49.6674 52.6667 49.6674C53.5867 49.6674 54.3334 50.4141 54.3334 51.3341C54.3334 52.0807 53.84 52.7007 53.1667 52.9141Z" fill="#45DEFE"/>
<defs>
<clipPath id="clip0_44_29931">
<rect width="32" height="32" fill="white" transform="translate(16.6667 16.3341)"/>
</clipPath>
</defs>
</svg>
