<svg width="24" height="25" viewBox="0 0 24 25" fill="none" xmlns="http://www.w3.org/2000/svg">
<path fill-rule="evenodd" clip-rule="evenodd" d="M12 0.484375C5.3724 0.484375 0 5.86517 0 12.5048C0 17.8148 3.438 22.3208 8.2068 23.9096C8.8068 24.02 9.0252 23.6492 9.0252 23.33C9.0252 23.0456 9.0156 22.2884 9.0096 21.2864C5.6712 22.0124 4.9668 19.6748 4.9668 19.6748C4.422 18.2852 3.6348 17.9156 3.6348 17.9156C2.5452 17.1716 3.7176 17.186 3.7176 17.186C4.9212 17.27 5.5548 18.4244 5.5548 18.4244C6.6252 20.2604 8.364 19.73 9.0468 19.4228C9.1572 18.6464 9.4668 18.1172 9.81 17.8172C7.146 17.5136 4.344 16.4816 4.344 11.876C4.344 10.5644 4.812 9.49037 5.5788 8.65037C5.4552 8.34677 5.0436 7.12397 5.6964 5.47038C5.6964 5.47038 6.7044 5.14637 8.9964 6.70157C9.97532 6.43459 10.9853 6.29861 12 6.29717C13.02 6.30197 14.046 6.43517 15.0048 6.70157C17.2956 5.14637 18.3012 5.46917 18.3012 5.46917C18.9564 7.12397 18.5436 8.34677 18.4212 8.65037C19.1892 9.49037 19.6548 10.5644 19.6548 11.876C19.6548 16.4936 16.848 17.51 14.1756 17.8076C14.6064 18.1784 14.9892 18.9116 14.9892 20.0336C14.9892 21.6392 14.9748 22.9364 14.9748 23.33C14.9748 23.6516 15.1908 24.026 15.8004 23.9084C18.19 23.1069 20.2672 21.5747 21.7386 19.5284C23.2099 17.4821 24.001 15.0252 24 12.5048C24 5.86517 18.6264 0.484375 12 0.484375Z" fill="#2F2B43" fill-opacity="0.6"/>
</svg>
