<svg width="24" height="25" viewBox="0 0 24 25" fill="none" xmlns="http://www.w3.org/2000/svg">
<path d="M7.55016 22.2344C16.6045 22.2344 21.5583 14.7311 21.5583 8.22624C21.5583 8.0153 21.5536 7.79967 21.5442 7.58874C22.5079 6.89184 23.3395 6.02863 24 5.03967C23.1025 5.43897 22.1496 5.69976 21.1739 5.81311C22.2013 5.19728 22.9705 4.22985 23.3391 3.09014C22.3726 3.66293 21.3156 4.06699 20.2134 4.28499C19.4708 3.49594 18.489 2.97349 17.4197 2.79843C16.3504 2.62336 15.2532 2.80543 14.2977 3.31647C13.3423 3.82752 12.5818 4.63908 12.1338 5.62569C11.6859 6.61229 11.5754 7.71899 11.8195 8.77467C9.86249 8.67647 7.94794 8.16808 6.19998 7.28247C4.45203 6.39687 2.90969 5.15381 1.67297 3.63389C1.0444 4.71762 0.852057 6.00002 1.13503 7.22047C1.418 8.44091 2.15506 9.50782 3.19641 10.2044C2.41463 10.1795 1.64998 9.96906 0.965625 9.5903V9.65124C0.964925 10.7885 1.3581 11.891 2.07831 12.7711C2.79852 13.6513 3.80132 14.2549 4.91625 14.4794C4.19206 14.6775 3.43198 14.7064 2.69484 14.5637C3.00945 15.5418 3.62157 16.3973 4.44577 17.0107C5.26997 17.6242 6.26512 17.965 7.29234 17.9856C5.54842 19.3555 3.39417 20.0985 1.17656 20.095C0.783287 20.0944 0.390399 20.0703 0 20.0228C2.25286 21.4681 4.87353 22.2358 7.55016 22.2344Z" fill="#2F2B43" fill-opacity="0.6"/>
</svg>
